<svg width="18" height="18" viewBox="0 0 18 18" fill="none" xmlns="http://www.w3.org/2000/svg">
<g clip-path="url(#clip0_7101_2853)">
<path d="M12.375 0H5.625C2.51888 0 0 2.51888 0 5.625V12.375C0 15.4811 2.51888 18 5.625 18H12.375C15.4811 18 18 15.4811 18 12.375V5.625C18 2.51888 15.4811 0 12.375 0ZM16.3125 12.375C16.3125 14.5462 14.5462 16.3125 12.375 16.3125H5.625C3.45375 16.3125 1.6875 14.5462 1.6875 12.375V5.625C1.6875 3.45375 3.45375 1.6875 5.625 1.6875H12.375C14.5462 1.6875 16.3125 3.45375 16.3125 5.625V12.375Z" fill="#4F70E2"/>
<path d="M9 4.49997C6.51487 4.49997 4.5 6.51484 4.5 8.99997C4.5 11.4851 6.51487 13.5 9 13.5C11.4851 13.5 13.5 11.4851 13.5 8.99997C13.5 6.51484 11.4851 4.49997 9 4.49997ZM9 11.8125C7.44975 11.8125 6.1875 10.5502 6.1875 8.99997C6.1875 7.44859 7.44975 6.18747 9 6.18747C10.5503 6.18747 11.8125 7.44859 11.8125 8.99997C11.8125 10.5502 10.5503 11.8125 9 11.8125Z" fill="#4F70E2"/>
<path d="M13.8379 4.76202C14.1691 4.76202 14.4375 4.49356 14.4375 4.1624C14.4375 3.83123 14.1691 3.56277 13.8379 3.56277C13.5067 3.56277 13.2383 3.83123 13.2383 4.1624C13.2383 4.49356 13.5067 4.76202 13.8379 4.76202Z" fill="#4F70E2"/>
</g>
<defs>
<clipPath id="clip0_7101_2853">
<rect width="18" height="18" fill="white"/>
</clipPath>
</defs>
</svg>
