<svg width="18" height="18" viewBox="0 0 18 18" fill="none" xmlns="http://www.w3.org/2000/svg">
<path d="M16.8197 13.7933C17.0144 13.9887 17.1604 14.2272 17.2458 14.4895C17.3312 14.7518 17.3536 15.0305 17.3112 15.3031C17.2689 15.5757 17.1629 15.8345 17.002 16.0585C16.841 16.2825 16.6295 16.4654 16.3847 16.5925C14.9856 17.3403 13.3555 17.5314 11.8214 17.1275C7.74969 16.1025 1.89719 10.25 0.872189 6.17834C0.468293 4.64421 0.659405 3.01411 1.40719 1.615C1.53427 1.37017 1.71722 1.15871 1.94123 0.997739C2.16524 0.836768 2.42401 0.730813 2.69658 0.688453C2.96916 0.646094 3.24788 0.668522 3.51018 0.75392C3.77247 0.839318 4.01097 0.985286 4.20636 1.18L5.94386 2.91667C6.19442 3.16472 6.36397 3.48285 6.43016 3.82916C6.49636 4.17546 6.4561 4.5337 6.31469 4.85667C6.15994 5.21904 5.94022 5.55004 5.66636 5.83334C3.67969 7.82 10.1805 14.3208 12.1664 12.3333C12.4497 12.0585 12.781 11.8379 13.1439 11.6825C13.4668 11.5409 13.8251 11.5005 14.1714 11.5667C14.5178 11.6329 14.8359 11.8026 15.0839 12.0533L16.8197 13.7933Z" fill="#4F70E2"/>
</svg>
