<svg width="17" height="16" viewBox="0 0 17 16" fill="none" xmlns="http://www.w3.org/2000/svg">
<g clip-path="url(#clip0_7101_2836)">
<path d="M8.45648 12.4553H9.39761C9.39761 12.4553 9.68212 12.4238 9.82683 12.2673C9.96072 12.1235 9.95579 11.8538 9.95579 11.8538C9.95579 11.8538 9.93709 10.5907 10.5238 10.4047C11.1017 10.2216 11.844 11.6254 12.6305 12.1659C13.2251 12.5744 13.677 12.4848 13.677 12.4848L15.7808 12.4553C15.7808 12.4553 16.8814 12.3874 16.3596 11.522C16.3173 11.4512 16.0554 10.8821 14.7953 9.71262C13.4762 8.48797 13.6534 8.68683 15.2423 6.56928C16.21 5.27965 16.5969 4.49209 16.4758 4.15541C16.3606 3.83448 15.6489 3.91914 15.6489 3.91914L13.2822 3.93293C13.2822 3.93293 13.107 3.9093 12.9761 3.98707C12.8491 4.06386 12.7674 4.24106 12.7674 4.24106C12.7674 4.24106 12.3923 5.23929 11.8922 6.08788C10.8379 7.87859 10.4155 7.9731 10.2433 7.86186C9.84258 7.60295 9.943 6.82031 9.943 6.26508C9.943 4.5295 10.2058 3.80593 9.4301 3.61889C9.17217 3.55687 8.98316 3.51552 8.32456 3.50863C7.47991 3.49977 6.76421 3.51158 6.3596 3.70946C6.08987 3.84137 5.88215 4.13572 6.00914 4.15246C6.16567 4.17313 6.52007 4.24795 6.7081 4.50391C6.95126 4.8337 6.9424 5.57597 6.9424 5.57597C6.9424 5.57597 7.08219 7.6187 6.61655 7.87269C6.2966 8.04694 5.85852 7.69155 4.91837 6.06623C4.43698 5.23437 4.07273 4.31391 4.07273 4.31391C4.07273 4.31391 4.00284 4.14261 3.87781 4.05106C3.72621 3.93982 3.51357 3.90438 3.51357 3.90438L1.26312 3.91816C1.26312 3.91816 0.925452 3.928 0.801411 4.07469C0.691153 4.20562 0.792551 4.47536 0.792551 4.47536C0.792551 4.47536 2.55471 8.59724 4.5492 10.6754C6.37929 12.5803 8.45648 12.4553 8.45648 12.4553Z" fill="#4F70E2"/>
</g>
<defs>
<clipPath id="clip0_7101_2836">
<rect width="15.75" height="15.75" fill="white" transform="translate(0.75 0.125)"/>
</clipPath>
</defs>
</svg>
