<svg width="20" height="20" viewBox="0 0 20 20" fill="none" xmlns="http://www.w3.org/2000/svg">
<g clip-path="url(#clip0_3689_22851)">
<path d="M0.975768 19.9993C0.782596 19.9993 0.593752 19.9421 0.433124 19.8348C0.272496 19.7274 0.147299 19.5749 0.0733705 19.3965C-0.000558236 19.218 -0.0198977 19.0216 0.0177982 18.8321C0.0554942 18.6427 0.148532 18.4687 0.285143 18.3321L18.332 0.285212C18.5152 0.102047 18.7636 -0.000854492 19.0226 -0.000854492C19.2817 -0.000854492 19.5301 0.102047 19.7133 0.285212C19.8964 0.468377 19.9993 0.716802 19.9993 0.975837C19.9993 1.23487 19.8964 1.4833 19.7133 1.66646L1.66639 19.7133C1.57578 19.8041 1.46813 19.8761 1.34961 19.9252C1.23109 19.9743 1.10404 19.9994 0.975768 19.9993Z" fill="#171717"/>
<path d="M19.0228 19.9993C18.8946 19.9994 18.7675 19.9743 18.649 19.9252C18.5305 19.8761 18.4228 19.8041 18.3322 19.7133L0.285334 1.66646C0.102169 1.4833 -0.000732422 1.23487 -0.000732422 0.975837C-0.000732422 0.716802 0.102169 0.468377 0.285334 0.285212C0.468499 0.102047 0.716924 -0.000854492 0.975959 -0.000854492C1.23499 -0.000854492 1.48342 0.102047 1.66658 0.285212L19.7135 18.3321C19.8501 18.4687 19.9431 18.6427 19.9808 18.8321C20.0185 19.0216 19.9992 19.218 19.9252 19.3965C19.8513 19.5749 19.7261 19.7274 19.5655 19.8348C19.4048 19.9421 19.216 19.9993 19.0228 19.9993V19.9993Z" fill="#171717"/>
</g>
<defs>
<clipPath id="clip0_3689_22851">
<rect width="20" height="20" fill="white"/>
</clipPath>
</defs>
</svg>
