<svg width="24" height="24" viewBox="0 0 24 24" fill="none" xmlns="http://www.w3.org/2000/svg">
<path d="M12.001 20.8125C11.9047 20.8126 11.8101 20.7879 11.7261 20.7408C10.0166 19.7395 8.41224 18.5688 6.93716 17.2463C3.70316 14.3357 2.06348 11.4351 2.06348 8.62503C2.06384 7.46198 2.437 6.32966 3.1282 5.39428C3.8194 4.4589 4.79224 3.76971 5.90392 3.42786C7.01561 3.08602 8.2076 3.10953 9.30494 3.49493C10.4023 3.88034 11.3472 4.60735 12.001 5.56925C12.6548 4.60735 13.5997 3.88034 14.697 3.49493C15.7944 3.10953 16.9863 3.08602 18.098 3.42786C19.2097 3.76971 20.1826 4.4589 20.8738 5.39428C21.565 6.32966 21.9381 7.46198 21.9385 8.62503C21.9385 11.4351 20.2988 14.3357 17.0647 17.2463C15.5896 18.5688 13.9852 19.7395 12.2758 20.7408C12.1918 20.7878 12.0972 20.8125 12.001 20.8125ZM7.50098 4.31253C6.35763 4.31382 5.26147 4.76859 4.453 5.57706C3.64453 6.38553 3.18977 7.48168 3.18848 8.62503C3.18848 13.9993 10.4809 18.6804 12.001 19.5973C13.521 18.6804 20.8135 13.9993 20.8135 8.62503C20.8133 7.62828 20.4679 6.66236 19.836 5.89149C19.2041 5.12062 18.3247 4.59239 17.3474 4.3966C16.3701 4.20081 15.3551 4.34955 14.475 4.81753C13.5949 5.2855 12.9041 6.04384 12.52 6.9636C12.4772 7.06597 12.4051 7.1534 12.3127 7.21489C12.2204 7.27639 12.1119 7.3092 12.001 7.3092C11.89 7.3092 11.7816 7.27639 11.6892 7.21489C11.5969 7.1534 11.5248 7.06597 11.482 6.9636C11.155 6.17751 10.6023 5.50605 9.89363 5.03416C9.18501 4.56226 8.35235 4.31113 7.50098 4.31253Z" fill="#E31B4B"/>
<path d="M7.50098 4.31251C6.35763 4.3138 5.26147 4.76856 4.453 5.57703C3.64453 6.3855 3.18977 7.48166 3.18848 8.62501C3.18848 13.9992 10.4809 18.6804 12.001 19.5972C13.521 18.6804 20.8135 13.9992 20.8135 8.62501C20.8133 7.62825 20.4679 6.66233 19.836 5.89146C19.2041 5.12059 18.3247 4.59236 17.3474 4.39657C16.3701 4.20078 15.3551 4.34952 14.475 4.8175C13.5949 5.28548 12.9041 6.04381 12.52 6.96357C12.4772 7.06594 12.4051 7.15337 12.3127 7.21486C12.2204 7.27636 12.1119 7.30917 12.001 7.30917C11.89 7.30917 11.7816 7.27636 11.6892 7.21486C11.5969 7.15337 11.5248 7.06594 11.482 6.96357C11.155 6.17748 10.6023 5.50603 9.89364 5.03413C9.18501 4.56224 8.35235 4.31111 7.50098 4.31251Z" fill="#E31B4B"/>
</svg>
