<svg width="24" height="24" viewBox="0 0 24 24" fill="none" xmlns="http://www.w3.org/2000/svg">
<path d="M12.001 20.8125C11.9047 20.8125 11.8101 20.7878 11.7261 20.7408C10.0166 19.7395 8.41224 18.5688 6.93716 17.2463C3.70316 14.3357 2.06348 11.4351 2.06348 8.625C2.06384 7.46195 2.437 6.32963 3.1282 5.39425C3.8194 4.45887 4.79224 3.76968 5.90392 3.42783C7.01561 3.08599 8.2076 3.1095 9.30494 3.4949C10.4023 3.88031 11.3472 4.60732 12.001 5.56922C12.6548 4.60732 13.5997 3.88031 14.697 3.4949C15.7944 3.1095 16.9863 3.08599 18.098 3.42783C19.2097 3.76968 20.1826 4.45887 20.8738 5.39425C21.565 6.32963 21.9381 7.46195 21.9385 8.625C21.9385 11.4351 20.2988 14.3357 17.0647 17.2463C15.5896 18.5688 13.9852 19.7395 12.2758 20.7408C12.1918 20.7878 12.0972 20.8125 12.001 20.8125ZM7.50098 4.3125C6.35763 4.31379 5.26147 4.76856 4.453 5.57703C3.64453 6.3855 3.18977 7.48165 3.18848 8.625C3.18848 13.9992 10.4809 18.6803 12.001 19.5972C13.521 18.6803 20.8135 13.9992 20.8135 8.625C20.8133 7.62825 20.4679 6.66233 19.836 5.89146C19.2041 5.12059 18.3247 4.59236 17.3474 4.39657C16.3701 4.20078 15.3551 4.34952 14.475 4.8175C13.5949 5.28547 12.9041 6.04381 12.52 6.96357C12.4772 7.06594 12.4051 7.15337 12.3127 7.21486C12.2204 7.27636 12.1119 7.30917 12.001 7.30917C11.89 7.30917 11.7816 7.27636 11.6892 7.21486C11.5969 7.15337 11.5248 7.06594 11.482 6.96357C11.155 6.17748 10.6023 5.50602 9.89363 5.03413C9.18501 4.56223 8.35235 4.3111 7.50098 4.3125Z" fill="#4B5FA5"/>
<path d="M7.50098 4.31252C6.35763 4.31381 5.26147 4.76858 4.453 5.57705C3.64453 6.38552 3.18977 7.48167 3.18848 8.62502C3.18848 13.9992 10.4809 18.6804 12.001 19.5972C13.521 18.6804 20.8135 13.9992 20.8135 8.62502C20.8133 7.62827 20.4679 6.66234 19.836 5.89148C19.2041 5.12061 18.3247 4.59238 17.3474 4.39659C16.3701 4.2008 15.3551 4.34953 14.475 4.81751C13.5949 5.28549 12.9041 6.04382 12.52 6.96358C12.4772 7.06595 12.4051 7.15338 12.3127 7.21488C12.2204 7.27637 12.1119 7.30918 12.001 7.30918C11.89 7.30918 11.7816 7.27637 11.6892 7.21488C11.5969 7.15338 11.5248 7.06595 11.482 6.96358C11.155 6.1775 10.6023 5.50604 9.89364 5.03415C9.18501 4.56225 8.35235 4.31112 7.50098 4.31252Z" fill="#4B5FA5"/>
</svg>
