<svg width="36" height="36" viewBox="0 0 36 36" fill="none" xmlns="http://www.w3.org/2000/svg">
<path d="M18.0001 18.6757C14.6579 18.6757 11.9233 15.9412 11.9233 12.599C11.9233 9.25676 14.6579 6.52222 18.0001 6.52222C21.3423 6.52222 24.0769 9.25676 24.0769 12.599C24.0769 15.9412 21.3423 18.6757 18.0001 18.6757ZM18.0001 9.40868C16.253 9.40868 14.8098 10.8519 14.8098 12.599C14.8098 14.346 16.253 15.7893 18.0001 15.7893C19.7472 15.7893 21.1904 14.346 21.1904 12.599C21.1904 10.8519 19.7472 9.40868 18.0001 9.40868Z" fill="#FD9B08"/>
<path d="M24.5327 19.2834C24.001 18.5997 23.0895 18.5238 22.4058 18.9795C22.4058 18.9795 20.7347 20.1949 18.0002 20.1949C15.2657 20.1949 13.5946 18.9795 13.5946 18.9795C12.9109 18.4478 11.9994 18.5997 11.4677 19.2834C10.936 19.967 11.0879 20.8785 11.7715 21.4102C11.8475 21.4862 13.4426 22.7015 16.1012 23.0813L12.0754 27.1832C11.4677 27.7908 11.4677 28.7783 12.0754 29.31C12.3792 29.6139 12.759 29.7658 13.1388 29.7658C13.5186 29.7658 13.8984 29.6139 14.2022 29.31L18.0002 25.4361L21.7982 29.31C22.102 29.6139 22.4818 29.7658 22.8616 29.7658C23.2414 29.7658 23.6212 29.6139 23.925 29.31C24.5327 28.7023 24.5327 27.7908 23.925 27.1832L19.8992 23.0813C22.5578 22.6256 24.1529 21.4102 24.2289 21.4102C24.9125 20.8785 25.0644 19.891 24.5327 19.2834Z" fill="#FD9B08"/>
<rect x="0.5" y="0.5" width="35" height="35" rx="7.5" stroke="#EDF1FD"/>
</svg>
