<svg width="64" height="64" viewBox="0 0 64 64" fill="none" xmlns="http://www.w3.org/2000/svg">
<path d="M32.2332 38.3375L58.4784 9.53064L61.9431 12.6874L32.4738 45.0333L16.4084 29.7612L19.6384 26.3639L32.2332 38.3375ZM60.123 21.5687L56.4679 25.5934C56.9985 27.631 57.2812 29.7675 57.2812 31.9688C57.2812 45.9258 45.9258 57.2812 31.9688 57.2812C18.0117 57.2812 6.65625 45.9258 6.65625 31.9688C6.65625 18.0117 18.0117 6.65625 31.9688 6.65625C38.4346 6.65625 44.3408 9.09448 48.8199 13.0979L51.98 9.61853C46.4711 4.67432 39.4281 1.96875 31.9688 1.96875C23.9557 1.96875 16.4216 5.08923 10.7556 10.7556C5.08923 16.4216 1.96875 23.9557 1.96875 31.9688C1.96875 39.9818 5.08923 47.5159 10.7556 53.1819C16.4216 58.8483 23.9557 61.9688 31.9688 61.9688C39.9818 61.9688 47.5159 58.8483 53.1819 53.1819C58.8483 47.5159 61.9688 39.9818 61.9688 31.9688C61.9688 28.3623 61.3348 24.854 60.123 21.5687Z" fill="#26AD5C"/>
</svg>
