<svg width="36" height="36" viewBox="0 0 36 36" fill="none" xmlns="http://www.w3.org/2000/svg">
<path d="M27.955 9.59832L24.5095 26.9695C24.5095 26.9695 24.0277 28.1742 22.7026 27.5959L14.752 21.5004L11.8609 20.1031L6.99418 18.4647C6.99418 18.4647 6.24731 18.1997 6.17497 17.6215C6.10263 17.0432 7.01829 16.7301 7.01829 16.7301L26.3647 9.1408C26.3647 9.1408 27.9549 8.44215 27.9549 9.59863" fill="#40B3E0"/>
<path d="M14.1419 26.7743C14.1419 26.7743 13.9098 26.7526 13.6205 25.8369C13.3316 24.9214 11.8618 20.1029 11.8618 20.1029L23.5469 12.6824C23.5469 12.6824 24.2215 12.2728 24.1974 12.6824C24.1974 12.6824 24.3178 12.7547 23.9563 13.092C23.5951 13.4294 14.7771 21.3558 14.7771 21.3558" fill="white"/>
<path d="M17.8001 23.8374L14.6554 26.7046C14.6554 26.7046 14.4095 26.8912 14.1406 26.7743L14.7428 21.4485" fill="#B5CFE4"/>
<rect x="0.5" y="0.5" width="35" height="35" rx="7.5" stroke="#EDF1FD"/>
</svg>
