<svg width="36" height="36" viewBox="0 0 36 36" fill="none" xmlns="http://www.w3.org/2000/svg">
<g clip-path="url(#clip0_7471_801)">
<path d="M17.2753 23.9404H18.5301C18.5301 23.9404 18.9095 23.8984 19.1024 23.6897C19.281 23.4981 19.2744 23.1384 19.2744 23.1384C19.2744 23.1384 19.2495 21.4543 20.0318 21.2063C20.8023 20.9621 21.792 22.8339 22.8407 23.5545C23.6335 24.0992 24.236 23.9798 24.236 23.9798L27.041 23.9404C27.041 23.9404 28.5085 23.8498 27.8128 22.6961C27.7564 22.6016 27.4072 21.8429 25.7271 20.2835C23.9682 18.6506 24.2045 18.9158 26.323 16.0924C27.6133 14.3729 28.1292 13.3228 27.9677 12.8739C27.8141 12.446 26.8651 12.5589 26.8651 12.5589L23.7097 12.5772C23.7097 12.5772 23.476 12.5457 23.3014 12.6494C23.1321 12.7518 23.0232 12.9881 23.0232 12.9881C23.0232 12.9881 22.5231 14.3191 21.8563 15.4505C20.4505 17.8381 19.8874 17.9641 19.6577 17.8158C19.1234 17.4706 19.2573 16.4271 19.2573 15.6868C19.2573 13.3727 19.6078 12.4079 18.5735 12.1585C18.2296 12.0758 17.9775 12.0207 17.0994 12.0115C15.9732 11.9997 15.019 12.0155 14.4795 12.2793C14.1198 12.4552 13.8429 12.8476 14.0122 12.87C14.2209 12.8975 14.6934 12.9973 14.9441 13.3386C15.2683 13.7783 15.2565 14.768 15.2565 14.768C15.2565 14.768 15.4429 17.4916 14.8221 17.8303C14.3955 18.0626 13.8114 17.5887 12.5578 15.4216C11.916 14.3125 11.4303 13.0852 11.4303 13.0852C11.4303 13.0852 11.3371 12.8568 11.1704 12.7348C10.9683 12.5864 10.6848 12.5392 10.6848 12.5392L7.68416 12.5576C7.68416 12.5576 7.23394 12.5707 7.06855 12.7663C6.92154 12.9408 7.05673 13.3005 7.05673 13.3005C7.05673 13.3005 9.40628 18.7963 12.0656 21.5672C14.5057 24.1071 17.2753 23.9404 17.2753 23.9404Z" fill="#2787F5"/>
</g>
<rect x="0.5" y="0.5" width="35" height="35" rx="7.5" stroke="#EDF1FD"/>
<defs>
<clipPath id="clip0_7471_801">
<rect width="21" height="21" fill="white" transform="translate(7 7.5)"/>
</clipPath>
</defs>
</svg>
