<svg width="36" height="36" viewBox="0 0 36 36" fill="none" xmlns="http://www.w3.org/2000/svg">
<path fill-rule="evenodd" clip-rule="evenodd" d="M26.5514 9.83926C24.466 7.75148 21.6927 6.6012 18.7382 6.59998C12.65 6.59998 7.69519 11.5547 7.69275 17.6444C7.69193 19.5911 8.20047 21.4914 9.16709 23.1665L7.6001 28.89L13.4554 27.354C15.0688 28.2341 16.8852 28.6979 18.7337 28.6984H18.7383C24.8257 28.6984 29.7811 23.7433 29.7834 17.6533C29.7847 14.7019 28.6368 11.9269 26.5514 9.83926ZM18.7382 26.8331H18.7343C17.0871 26.8324 15.4715 26.3897 14.0618 25.5534L13.7267 25.3544L10.2521 26.2659L11.1795 22.8782L10.9611 22.5308C10.0421 21.0692 9.55687 19.3797 9.55768 17.6451C9.55959 12.5835 13.678 8.46546 18.7418 8.46546C21.1939 8.46627 23.499 9.42241 25.2322 11.1577C26.9655 12.893 27.9194 15.1995 27.9186 17.6526C27.9165 22.7146 23.7983 26.8331 18.7382 26.8331ZM23.7738 19.9574C23.4979 19.8192 22.141 19.1517 21.8879 19.0595C21.6351 18.9674 21.4509 18.9215 21.2671 19.1977C21.0831 19.4739 20.5543 20.0956 20.3932 20.2797C20.2321 20.4639 20.0713 20.487 19.7952 20.3488C19.5192 20.2107 18.63 19.9191 17.5758 18.9789C16.7554 18.2471 16.2016 17.3434 16.0405 17.0672C15.8797 16.7907 16.0391 16.6558 16.1616 16.504C16.4603 16.1329 16.7595 15.744 16.8515 15.5599C16.9436 15.3757 16.8974 15.2145 16.8283 15.0764C16.7595 14.9383 16.2075 13.5799 15.9776 13.0271C15.7534 12.4892 15.5261 12.5618 15.3566 12.5534C15.1958 12.5454 15.0117 12.5437 14.8276 12.5437C14.6437 12.5437 14.3446 12.6127 14.0916 12.8892C13.8387 13.1655 13.1258 13.8331 13.1258 15.1915C13.1258 16.5499 14.1147 17.8622 14.2527 18.0465C14.3906 18.2307 16.1988 21.0183 18.9673 22.2136C19.6257 22.4982 20.1397 22.6678 20.5406 22.7951C21.2018 23.0051 21.8033 22.9755 22.2789 22.9044C22.8092 22.8251 23.9116 22.2367 24.1418 21.5921C24.3717 20.9474 24.3717 20.3949 24.3026 20.2797C24.2338 20.1646 24.0497 20.0956 23.7738 19.9574Z" fill="#26AD5C"/>
<rect x="0.5" y="0.5" width="35" height="35" rx="7.5" stroke="#EDF1FD"/>
</svg>
