<svg width="20" height="20" viewBox="0 0 20 20" fill="none" xmlns="http://www.w3.org/2000/svg">
<path d="M19.5721 7.12314L12.8672 0.418204C12.3093 -0.139655 11.4358 -0.139147 10.8785 0.418204L0.418938 10.8777C0.144481 11.1522 -0.00817756 11.5291 0.000338181 11.9114C0.0083461 12.282 0.160067 12.6238 0.427922 12.8756L1.85599 14.3037C2.10334 14.5515 2.49463 14.5802 2.77569 14.3725C3.59574 13.7668 4.73708 13.8457 5.43084 14.5569C6.14155 15.2851 6.22804 16.429 5.63178 17.218C5.41905 17.4995 5.44639 17.8943 5.69585 18.1438L7.13286 19.5808C7.40024 19.8479 7.76443 19.9999 8.13662 19.9999C8.1465 19.9999 8.15666 19.9996 8.16654 19.9994C8.5371 19.9914 8.87894 19.8399 9.13074 19.5718L19.5811 9.12078C19.8555 8.84656 20.008 8.46988 19.9997 8.08733C19.9917 7.71678 19.8402 7.37498 19.5721 7.12314ZM11.8872 1.41021C11.8839 1.41208 11.8785 1.41302 11.874 1.41396L11.3784 0.918328L11.8872 1.41021ZM8.12744 18.5763L7.08833 17.5372C7.72224 16.2521 7.48646 14.6396 6.44238 13.5696C5.40186 12.5043 3.78133 12.2631 2.46447 12.9133L1.42348 11.8725L11.8731 1.42318L18.5768 8.1269L8.12744 18.5763Z" fill="#4F70E2"/>
</svg>
