<svg width="20" height="20" viewBox="0 0 20 20" fill="none" xmlns="http://www.w3.org/2000/svg">
<g clip-path="url(#clip0_880_15702)">
<path d="M18.7228 5.08225C18.4383 4.41388 18.0282 3.8082 17.5153 3.29913C17.002 2.78855 16.3968 2.38279 15.7327 2.10393C15.044 1.81362 14.3053 1.66502 13.5596 1.66676C12.5134 1.66676 11.4926 1.95749 10.6055 2.50664C10.3933 2.638 10.1917 2.78229 10.0007 2.9395C9.80973 2.78229 9.60812 2.638 9.39591 2.50664C8.50885 1.95749 7.48809 1.66676 6.44187 1.66676C5.6885 1.66676 4.95848 1.8132 4.26878 2.10393C3.60242 2.38389 3.00185 2.7866 2.48617 3.29913C1.9726 3.80763 1.56235 4.41345 1.27866 5.08225C0.983681 5.77784 0.833008 6.5165 0.833008 7.27669C0.833008 7.99381 0.977315 8.74109 1.26381 9.50128C1.50361 10.1366 1.8474 10.7955 2.28669 11.461C2.98275 12.5141 3.93984 13.6124 5.12825 14.7257C7.09761 16.5713 9.04788 17.8462 9.13064 17.8979L9.63359 18.2252C9.85642 18.3695 10.1429 18.3695 10.3657 18.2252L10.8687 17.8979C10.9515 17.844 12.8996 16.5713 14.8711 14.7257C16.0595 13.6124 17.0166 12.5141 17.7126 11.461C18.1519 10.7955 18.4978 10.1366 18.7355 9.50128C19.022 8.74109 19.1663 7.99381 19.1663 7.27669C19.1684 6.5165 19.0178 5.77784 18.7228 5.08225V5.08225Z" stroke="#4F70E2" stroke-width="1.6"/>
</g>
<defs>
<clipPath id="clip0_880_15702">
<rect width="20" height="20" fill="white"/>
</clipPath>
</defs>
</svg>
