<svg width="86" height="48" viewBox="0 0 86 48" fill="none" xmlns="http://www.w3.org/2000/svg">
<path d="M0.675 14.375L8.725 4.5H1.05V0.249999H14.6V3.875L7.05 13.75H14.75V18H0.675V14.375ZM25.7082 18.25C24.5582 18.25 23.5332 18.075 22.6332 17.725C21.7332 17.3583 20.9749 16.8667 20.3582 16.25C19.7582 15.6333 19.2999 14.925 18.9832 14.125C18.6665 13.325 18.5082 12.4833 18.5082 11.6C18.5082 10.3333 18.7832 9.175 19.3332 8.125C19.8832 7.05833 20.6915 6.20833 21.7582 5.575C22.8249 4.925 24.1415 4.6 25.7082 4.6C27.2749 4.6 28.5915 4.91667 29.6582 5.55C30.7249 6.18333 31.5332 7.01667 32.0832 8.05C32.6332 9.08333 32.9082 10.2083 32.9082 11.425C32.9082 11.675 32.8915 11.9333 32.8582 12.2C32.8415 12.45 32.8165 12.675 32.7832 12.875H23.5582C23.5915 13.3417 23.7165 13.725 23.9332 14.025C24.1665 14.3083 24.4499 14.5167 24.7832 14.65C25.1332 14.7833 25.4915 14.85 25.8582 14.85C26.3749 14.85 26.8582 14.7333 27.3082 14.5C27.7749 14.2667 28.0832 13.9417 28.2332 13.525L32.2582 14.675C31.9082 15.375 31.4165 15.9917 30.7832 16.525C30.1665 17.0583 29.4332 17.4833 28.5832 17.8C27.7332 18.1 26.7749 18.25 25.7082 18.25ZM23.4582 10.025H27.8082C27.7582 9.59167 27.6332 9.225 27.4332 8.925C27.2499 8.625 26.9999 8.39167 26.6832 8.225C26.3832 8.05833 26.0332 7.975 25.6332 7.975C25.2332 7.975 24.8749 8.05833 24.5582 8.225C24.2582 8.39167 24.0082 8.625 23.8082 8.925C23.6249 9.225 23.5082 9.59167 23.4582 10.025ZM43.6926 18.25C42.5259 18.25 41.4926 18.0667 40.5926 17.7C39.6926 17.3333 38.9342 16.8333 38.3176 16.2C37.7176 15.55 37.2592 14.8167 36.9426 14C36.6426 13.1833 36.4926 12.325 36.4926 11.425C36.4926 10.525 36.6426 9.66667 36.9426 8.85C37.2592 8.01667 37.7176 7.28333 38.3176 6.65C38.9342 6.01667 39.6926 5.51667 40.5926 5.15C41.4926 4.78333 42.5259 4.6 43.6926 4.6C44.8759 4.6 45.9092 4.78333 46.7926 5.15C47.6926 5.51667 48.4426 6.01667 49.0426 6.65C49.6592 7.28333 50.1176 8.01667 50.4176 8.85C50.7342 9.66667 50.8926 10.525 50.8926 11.425C50.8926 12.325 50.7342 13.1833 50.4176 14C50.1176 14.8167 49.6592 15.55 49.0426 16.2C48.4426 16.8333 47.6926 17.3333 46.7926 17.7C45.9092 18.0667 44.8759 18.25 43.6926 18.25ZM41.3676 11.425C41.3676 12.0083 41.4676 12.5167 41.6676 12.95C41.8676 13.3667 42.1426 13.6917 42.4926 13.925C42.8426 14.1417 43.2426 14.25 43.6926 14.25C44.1426 14.25 44.5426 14.1417 44.8926 13.925C45.2426 13.6917 45.5176 13.3667 45.7176 12.95C45.9176 12.5167 46.0176 12.0083 46.0176 11.425C46.0176 10.8417 45.9176 10.3417 45.7176 9.925C45.5176 9.49167 45.2426 9.16667 44.8926 8.95C44.5426 8.71667 44.1426 8.6 43.6926 8.6C43.2426 8.6 42.8426 8.71667 42.4926 8.95C42.1426 9.16667 41.8676 9.49167 41.6676 9.925C41.4676 10.3417 41.3676 10.8417 41.3676 11.425ZM68.549 18H63.799V10.6C63.799 9.95 63.649 9.48333 63.349 9.2C63.0657 8.9 62.7324 8.75 62.349 8.75C62.0824 8.75 61.799 8.83333 61.499 9C61.199 9.15 60.924 9.36667 60.674 9.65C60.424 9.93333 60.224 10.2583 60.074 10.625V18H55.324V4.85H59.599V6.8C59.9157 6.31667 60.3157 5.91667 60.799 5.6C61.2824 5.26667 61.8407 5.01667 62.474 4.85C63.1074 4.68333 63.799 4.6 64.549 4.6C65.449 4.6 66.1657 4.75833 66.699 5.075C67.2324 5.39167 67.6324 5.8 67.899 6.3C68.1657 6.8 68.3407 7.325 68.424 7.875C68.5074 8.40833 68.549 8.9 68.549 9.35V18ZM9.575 47.25C8.59167 47.25 7.74167 47.0583 7.025 46.675C6.30833 46.275 5.74167 45.7 5.325 44.95V47H1.2V28.75H5.95V35.8C6.33333 35.0833 6.875 34.5417 7.575 34.175C8.275 33.7917 9.1 33.6 10.05 33.6C10.85 33.6 11.5917 33.775 12.275 34.125C12.9583 34.4583 13.55 34.9333 14.05 35.55C14.5667 36.1667 14.9667 36.9 15.25 37.75C15.5333 38.5833 15.675 39.4917 15.675 40.475C15.675 41.4417 15.5167 42.3417 15.2 43.175C14.9 43.9917 14.475 44.7083 13.925 45.325C13.3917 45.9417 12.75 46.4167 12 46.75C11.2667 47.0833 10.4583 47.25 9.575 47.25ZM8.2 43.25C8.58333 43.25 8.93333 43.1833 9.25 43.05C9.56667 42.9167 9.84167 42.7333 10.075 42.5C10.3083 42.25 10.4833 41.9583 10.6 41.625C10.7333 41.2917 10.8 40.9167 10.8 40.5C10.8 39.9667 10.6917 39.4833 10.475 39.05C10.275 38.6 9.99167 38.25 9.625 38C9.275 37.7333 8.86667 37.6 8.4 37.6C8.06667 37.6 7.74167 37.6833 7.425 37.85C7.10833 38.0167 6.81667 38.25 6.55 38.55C6.3 38.8333 6.1 39.1667 5.95 39.55V41.9C6.1 42.1167 6.25833 42.3167 6.425 42.5C6.60833 42.6667 6.79167 42.8083 6.975 42.925C7.15833 43.025 7.35 43.1083 7.55 43.175C7.76667 43.225 7.98333 43.25 8.2 43.25ZM26.6115 47.25C25.4449 47.25 24.4115 47.0667 23.5115 46.7C22.6115 46.3333 21.8532 45.8333 21.2365 45.2C20.6365 44.55 20.1782 43.8167 19.8615 43C19.5615 42.1833 19.4115 41.325 19.4115 40.425C19.4115 39.525 19.5615 38.6667 19.8615 37.85C20.1782 37.0167 20.6365 36.2833 21.2365 35.65C21.8532 35.0167 22.6115 34.5167 23.5115 34.15C24.4115 33.7833 25.4449 33.6 26.6115 33.6C27.7949 33.6 28.8282 33.7833 29.7115 34.15C30.6115 34.5167 31.3615 35.0167 31.9615 35.65C32.5782 36.2833 33.0365 37.0167 33.3365 37.85C33.6532 38.6667 33.8115 39.525 33.8115 40.425C33.8115 41.325 33.6532 42.1833 33.3365 43C33.0365 43.8167 32.5782 44.55 31.9615 45.2C31.3615 45.8333 30.6115 46.3333 29.7115 46.7C28.8282 47.0667 27.7949 47.25 26.6115 47.25ZM24.2865 40.425C24.2865 41.0083 24.3865 41.5167 24.5865 41.95C24.7865 42.3667 25.0615 42.6917 25.4115 42.925C25.7615 43.1417 26.1615 43.25 26.6115 43.25C27.0615 43.25 27.4615 43.1417 27.8115 42.925C28.1615 42.6917 28.4365 42.3667 28.6365 41.95C28.8365 41.5167 28.9365 41.0083 28.9365 40.425C28.9365 39.8417 28.8365 39.3417 28.6365 38.925C28.4365 38.4917 28.1615 38.1667 27.8115 37.95C27.4615 37.7167 27.0615 37.6 26.6115 37.6C26.1615 37.6 25.7615 37.7167 25.4115 37.95C25.0615 38.1667 24.7865 38.4917 24.5865 38.925C24.3865 39.3417 24.2865 39.8417 24.2865 40.425ZM51.468 47H46.718V39.6C46.718 38.95 46.568 38.4833 46.268 38.2C45.9846 37.9 45.6513 37.75 45.268 37.75C45.0013 37.75 44.718 37.8333 44.418 38C44.118 38.15 43.843 38.3667 43.593 38.65C43.343 38.9333 43.143 39.2583 42.993 39.625V47H38.243V33.85H42.518V35.8C42.8346 35.3167 43.2346 34.9167 43.718 34.6C44.2013 34.2667 44.7596 34.0167 45.393 33.85C46.0263 33.6833 46.718 33.6 47.468 33.6C48.368 33.6 49.0846 33.7583 49.618 34.075C50.1513 34.3917 50.5513 34.8 50.818 35.3C51.0846 35.8 51.2596 36.325 51.343 36.875C51.4263 37.4083 51.468 37.9 51.468 38.35V47ZM56.3953 42.5V33.85H61.1453V41.425C61.1453 41.9917 61.2703 42.4417 61.5203 42.775C61.787 43.0917 62.1453 43.25 62.5953 43.25C62.8453 43.25 63.0953 43.2167 63.3453 43.15C63.5953 43.0833 63.8453 42.95 64.0953 42.75C64.362 42.55 64.6203 42.2667 64.8703 41.9V33.85H69.6203V41.75C69.6203 42.2 69.687 42.5167 69.8203 42.7C69.9536 42.8667 70.187 42.9667 70.5203 43V47C70.1036 47.0833 69.7286 47.1417 69.3953 47.175C69.062 47.225 68.7703 47.25 68.5203 47.25C67.7203 47.25 67.087 47.1 66.6203 46.8C66.1536 46.5 65.8536 46.0417 65.7203 45.425L65.6203 44.95C65.0036 45.7667 64.262 46.3583 63.3953 46.725C62.5453 47.075 61.5786 47.25 60.4953 47.25C59.1786 47.25 58.162 46.8417 57.4453 46.025C56.7453 45.2083 56.3953 44.0333 56.3953 42.5ZM80.4877 47.25C79.3377 47.25 78.2044 47.0667 77.0877 46.7C75.9877 46.3167 75.0544 45.7667 74.2877 45.05L75.9127 42.125C76.7294 42.6583 77.5127 43.075 78.2627 43.375C79.0294 43.675 79.721 43.825 80.3377 43.825C80.6877 43.825 80.946 43.7833 81.1127 43.7C81.2794 43.6 81.3627 43.4417 81.3627 43.225C81.3627 43.075 81.3044 42.95 81.1877 42.85C81.071 42.75 80.8794 42.65 80.6127 42.55C80.3627 42.45 80.0377 42.3417 79.6377 42.225C78.6044 41.8583 77.7377 41.5167 77.0377 41.2C76.3544 40.8833 75.8377 40.5 75.4877 40.05C75.1544 39.5833 74.9877 38.9667 74.9877 38.2C74.9877 37.3 75.2127 36.5083 75.6627 35.825C76.1127 35.125 76.7544 34.575 77.5877 34.175C78.4377 33.775 79.4544 33.575 80.6377 33.575C81.521 33.575 82.4044 33.7167 83.2877 34C84.1877 34.2667 85.0544 34.7583 85.8877 35.475L84.0877 38.375C83.2544 37.8583 82.546 37.4917 81.9627 37.275C81.396 37.0583 80.8877 36.95 80.4377 36.95C80.221 36.95 80.0294 36.975 79.8627 37.025C79.7127 37.075 79.596 37.15 79.5127 37.25C79.4294 37.35 79.3877 37.4833 79.3877 37.65C79.3877 37.8167 79.446 37.9583 79.5627 38.075C79.6794 38.175 79.8627 38.275 80.1127 38.375C80.3627 38.4583 80.6794 38.5583 81.0627 38.675C82.196 39.0083 83.121 39.35 83.8377 39.7C84.5544 40.0333 85.0794 40.4417 85.4127 40.925C85.7627 41.4083 85.9377 42.0417 85.9377 42.825C85.9377 44.2083 85.446 45.2917 84.4627 46.075C83.496 46.8583 82.171 47.25 80.4877 47.25Z" fill="black"/>
</svg>
