<svg width="20" height="21" viewBox="0 0 20 21" fill="none" xmlns="http://www.w3.org/2000/svg">
<g clip-path="url(#clip0_892_20000)">
<path d="M16.6173 3.98837C15.1522 1.75581 12.7336 0.5 10.0127 0.5C7.315 0.5 4.8964 1.75581 3.38477 3.98837C1.87315 6.17442 1.52431 8.96512 2.45454 11.407C2.71035 12.0581 3.1057 12.7326 3.61733 13.3372L9.50105 20.2674C9.64058 20.407 9.78012 20.5 9.98942 20.5C10.1987 20.5 10.3383 20.407 10.4778 20.2674L16.3848 13.3372C16.8964 12.7326 17.315 12.0814 17.5476 11.407C18.4778 8.96512 18.129 6.17442 16.6173 3.98837ZM10.0127 12.2209C8.01268 12.2209 6.36152 10.5698 6.36152 8.56977C6.36152 6.56977 8.01268 4.9186 10.0127 4.9186C12.0127 4.9186 13.6638 6.56977 13.6638 8.56977C13.6638 10.5698 12.0359 12.2209 10.0127 12.2209Z" fill="#4F70E2"/>
</g>
<defs>
<clipPath id="clip0_892_20000">
<rect width="20" height="20" fill="white" transform="translate(0 0.5)"/>
</clipPath>
</defs>
</svg>
