<svg width="20" height="21" viewBox="0 0 20 21" fill="none" xmlns="http://www.w3.org/2000/svg">
<path d="M17.8197 15.2933C18.0144 15.4887 18.1604 15.7272 18.2458 15.9895C18.3312 16.2518 18.3536 16.5305 18.3112 16.8031C18.2689 17.0757 18.1629 17.3344 18.002 17.5585C17.841 17.7825 17.6295 17.9654 17.3847 18.0925C15.9856 18.8403 14.3555 19.0314 12.8214 18.6275C8.74969 17.6025 2.89719 11.75 1.87219 7.67832C1.46829 6.1442 1.6594 4.51409 2.40719 3.11499C2.53427 2.87016 2.71722 2.6587 2.94123 2.49772C3.16524 2.33675 3.42401 2.2308 3.69658 2.18844C3.96916 2.14608 4.24788 2.16851 4.51018 2.2539C4.77247 2.3393 5.01097 2.48527 5.20636 2.67999L6.94386 4.41666C7.19442 4.6647 7.36397 4.98283 7.43016 5.32914C7.49636 5.67545 7.4561 6.03368 7.31469 6.35666C7.15994 6.71902 6.94022 7.05003 6.66636 7.33332C4.67969 9.31999 11.1805 15.8208 13.1664 13.8333C13.4497 13.5585 13.781 13.3379 14.1439 13.1825C14.4668 13.0408 14.8251 13.0005 15.1714 13.0667C15.5178 13.1329 15.8359 13.3026 16.0839 13.5533L17.8197 15.2933Z" fill="currentColor"/>
</svg>
