<svg width="20" height="21" viewBox="0 0 20 21" fill="none" xmlns="http://www.w3.org/2000/svg">
<g clip-path="url(#clip0_7201_23446)">
<path d="M15.3018 10.2504C14.0682 11.8252 12.1785 12.8225 10 12.8225C7.87402 12.8225 5.93176 11.8252 4.69816 10.2504C1.83727 12.0614 0 15.211 0 18.7018C0 19.6467 0.734908 20.3554 1.65354 20.3554H18.3202C19.2651 20.3816 20 19.5942 20 18.7018C20 15.211 18.1627 12.0351 15.3018 10.2504Z" fill="currentColor"/>
<path d="M9.9996 0.644043C7.00747 0.644043 4.59277 3.08499 4.59277 6.05087C4.59277 9.04299 7.03372 11.4577 9.9996 11.4577C12.9655 11.4577 15.4064 9.06924 15.4064 6.05087C15.4064 3.03249 12.9917 0.644043 9.9996 0.644043Z" fill="currentColor"/>
</g>
<defs>
<clipPath id="clip0_7201_23446">
<rect width="20" height="20" fill="white" transform="translate(0 0.5)"/>
</clipPath>
</defs>
</svg>
