<svg width="20" height="21" viewBox="0 0 20 21" fill="none" xmlns="http://www.w3.org/2000/svg">
<g clip-path="url(#clip0_7201_23203)">
<path d="M15.2545 8.77351C15.0737 8.59266 14.8928 8.38922 14.712 8.23098V5.20188C14.712 2.60228 12.6097 0.5 10.0101 0.5C7.4105 0.5 5.30822 2.60228 5.30822 5.20188V8.14056C5.30822 8.16316 5.30822 8.18577 5.30822 8.20837C2.41475 10.808 2.16609 15.2612 4.74309 18.1547C7.32008 21.0481 11.7959 21.2968 14.6894 18.7198C17.5828 16.1428 17.8315 11.667 15.2545 8.77351ZM10.6204 14.9899C10.6204 15.329 10.3492 15.6003 10.0101 15.6003C9.67102 15.6003 9.39976 15.329 9.39976 14.9899V13.498C9.39976 13.1589 9.67102 12.8877 10.0101 12.8877C10.3492 12.8877 10.6204 13.1589 10.6204 13.498V14.9899ZM13.4687 7.34938C11.3212 6.1287 8.699 6.1287 6.55151 7.34938V5.22449C6.55151 3.32565 8.08866 1.76589 10.0101 1.76589C11.9315 1.76589 13.4687 3.30305 13.4687 5.22449V7.34938Z" fill="#D3D3D3"/>
</g>
<defs>
<clipPath id="clip0_7201_23203">
<rect width="20" height="20" fill="white" transform="translate(0 0.5)"/>
</clipPath>
</defs>
</svg>
