<svg width="20" height="21" viewBox="0 0 20 21" fill="none" xmlns="http://www.w3.org/2000/svg">
<g clip-path="url(#clip0_7201_23183)">
<path fill-rule="evenodd" clip-rule="evenodd" d="M12.8672 0.918204L19.5721 7.62314C19.8402 7.87498 19.9917 8.21678 19.9997 8.58733C20.008 8.96988 19.8555 9.34656 19.5811 9.62078L9.13074 20.0718C8.87894 20.3399 8.5371 20.4914 8.16654 20.4994L8.1484 20.4998L8.13662 20.4999C7.76443 20.4999 7.40024 20.3479 7.13286 20.0808L5.69585 18.6438C5.44639 18.3943 5.41904 17.9995 5.63178 17.718C6.22804 16.929 6.14155 15.7851 5.43084 15.0569C4.73708 14.3457 3.59574 14.2668 2.77569 14.8725C2.49463 15.0802 2.10334 15.0515 1.85599 14.8037L0.427922 13.3756C0.160067 13.1238 0.0083461 12.782 0.000338181 12.4114C-0.00817756 12.0291 0.144481 11.6522 0.418938 11.3777L10.8785 0.918204C11.4358 0.360853 12.3093 0.360345 12.8672 0.918204ZM8.92253 4.87038L9.92811 3.87764L11.1971 5.16305L10.1915 6.15579L8.92253 4.87038ZM15.3614 9.32552L14.3685 10.3315L15.6388 11.5854L16.6318 10.5794L15.3614 9.32552ZM11.3721 7.31323L12.3713 6.31397L14.2086 8.15127L13.2094 9.15054L11.3721 7.31323Z" fill="#4B5FA5"/>
</g>
<defs>
<clipPath id="clip0_7201_23183">
<rect width="20" height="20" fill="white" transform="translate(0 0.5)"/>
</clipPath>
</defs>
</svg>
