<svg width="16" height="14" viewBox="0 0 16 14" fill="none" xmlns="http://www.w3.org/2000/svg">
<path fill="#98949E" d="M8.92969 2.64685C8.62448 2.61384 8.31436 2.59492 8 2.59021C6.62633 2.59631 5.20236 2.93044 3.85449 3.57069C2.85372 4.06565 1.87885 4.76441 1.03223 5.62635C0.616427 6.06635 0.0857467 6.70344 0 7.38317C0.0101333 7.972 0.64204 8.69878 1.03223 9.14003C1.82613 9.96811 2.77561 10.6469 3.85449 11.1957C3.89116 11.2135 3.92796 11.2311 3.96484 11.2484L2.96388 12.9964L4.32395 13.8003L11.6762 0.999814L10.367 0.199707L8.92969 2.64685ZM12.0342 3.51991L11.0351 5.25133C11.4947 5.84843 11.7676 6.58475 11.7676 7.38317C11.7676 9.37327 10.0806 10.9867 7.99901 10.9867C7.90903 10.9867 7.82181 10.977 7.73339 10.9711L7.07225 12.1156C7.37716 12.1483 7.68545 12.172 7.99999 12.1761C9.37496 12.17 10.7981 11.832 12.1445 11.1957C13.1453 10.7007 14.1211 10.002 14.9678 9.14003C15.3836 8.70004 15.9142 8.06293 16 7.38317C15.9899 6.79436 15.3579 6.06759 14.9678 5.62633C14.1739 4.79825 13.2234 4.11949 12.1445 3.57067C12.1081 3.55301 12.0708 3.53713 12.0342 3.51991ZM7.99903 3.77968C8.09031 3.77968 8.18087 3.78333 8.27051 3.78944L7.49609 5.13025C6.40924 5.3506 5.59375 6.27532 5.59375 7.38222C5.59375 7.66027 5.64496 7.92647 5.73925 8.17321C5.73936 8.17349 5.73915 8.17392 5.73925 8.1742L4.96288 9.51892C4.5022 8.92128 4.23045 8.18254 4.23045 7.38316C4.23047 5.3931 5.91744 3.77967 7.99903 3.77968ZM10.2519 6.60681L8.50684 9.63026C9.58785 9.40576 10.3975 8.48526 10.3975 7.38222C10.3975 7.10923 10.343 6.84969 10.2519 6.60681Z"/>
</svg>